Jump_normalized_Precision Landing13_filtered_grf
version=1
nRows=10
nColumns=37
inDegrees=yes
endheader
time		1_ground_force_vx		1_ground_force_vy		1_ground_force_vz		1_ground_force_px		1_ground_force_py		1_ground_force_pz		1_ground_torque_x		1_ground_torque_y		1_ground_torque_z		2_ground_force_vx		2_ground_force_vy		2_ground_force_vz		2_ground_force_px		2_ground_force_py		2_ground_force_pz		2_ground_torque_x		2_ground_torque_y		2_ground_torque_z		3_ground_force_vx		3_ground_force_vy		3_ground_force_vz		3_ground_force_px		3_ground_force_py		3_ground_force_pz		3_ground_torque_x		3_ground_torque_y		3_ground_torque_z		4_ground_force_vx		4_ground_force_vy		4_ground_force_vz		4_ground_force_px		4_ground_force_py		4_ground_force_pz		4_ground_torque_x		4_ground_torque_y		4_ground_torque_z		
0.187000		0.000000		-0.000000		-0.000000		0.123594		0.000000		0.385075		-0.000000		-0.000000		0.000000		-0.000000		-0.000000		-0.000000		-0.155640		0.000000		0.290391		-0.000000		0.000000		-0.000000		-18.516555		665.173018		125.820036		0.353332		1.253499		1.891891		0.938086		-33.699024		-6.374300		0.658129		673.198735		81.443418		-0.290083		1.264190		1.903288		8.126861		26.675611		93.142796		
0.190384		0.000000		-0.000000		-0.000000		0.123594		0.000000		0.385075		-0.000000		-0.000000		0.000000		-0.000000		-0.000000		-0.000000		-0.155640		0.000000		0.290391		-0.000000		0.000000		-0.000000		-18.920176		664.926851		124.071464		0.353298		1.253509		1.891917		0.959643		-33.725493		-6.292979		0.954145		673.089417		78.807189		-0.290112		1.264178		1.903320		8.064526		27.152102		92.953632		
0.193768		0.000000		-0.000000		-0.000000		0.123594		0.000000		0.385075		-0.000000		-0.000000		0.000000		-0.000000		0.000000		-0.000000		-0.155640		0.000000		0.290391		-0.000000		0.000000		0.000000		-18.983959		664.300153		121.948066		0.353268		1.253504		1.891911		0.964666		-33.756283		-6.196766		1.419382		672.056977		76.331458		-0.290132		1.264162		1.903361		8.023982		27.534557		92.664535		
0.197152		0.000000		0.000000		0.000000		0.123594		0.000000		0.385075		0.000000		-0.000000		-0.000000		-0.000000		0.000000		0.000000		-0.155640		0.000000		0.290391		0.000000		0.000000		0.000000		-18.752410		663.301961		119.657717		0.353243		1.253488		1.891882		0.955136		-33.784683		-6.094655		2.021897		670.180124		74.057000		-0.290141		1.264145		1.903411		7.995015		27.822342		92.283229		
0.200535		0.000000		0.000000		0.000000		0.123594		0.000000		0.385075		0.000000		0.000000		-0.000000		0.000000		0.000000		0.000000		-0.155640		0.000000		0.290391		0.000000		-0.000000		0.000000		-18.292952		662.033696		117.488108		0.353223		1.253467		1.891845		0.934113		-33.806169		-5.999427		2.693283		667.557794		72.034468		-0.290138		1.264131		1.903473		7.967033		28.014043		91.819930		
0.203919		-0.000000		0.000000		0.000000		0.123594		0.000000		0.385075		0.000000		0.000000		-0.000000		0.000000		0.000000		0.000000		-0.155640		0.000000		0.290391		0.000000		-0.000000		0.000000		-17.643310		660.614930		115.658418		0.353202		1.253452		1.891822		0.903229		-33.819423		-5.921000		3.352804		664.266334		70.289493		-0.290126		1.264120		1.903541		7.929961		28.110011		91.283011		
0.207303		-0.000000		0.000000		0.000000		0.123594		0.000000		0.385075		0.000000		0.000000		-0.000000		0.000000		0.000000		0.000000		-0.155640		0.000000		0.290391		0.000000		-0.000000		0.000000		-16.817307		659.093541		114.258531		0.353179		1.253454		1.891832		0.863078		-33.825251		-5.863846		3.941166		660.331900		68.808231		-0.290112		1.264113		1.903610		7.879748		28.115025		90.675986		
0.210687		-0.000000		-0.000000		0.000000		0.123594		0.000000		0.385075		0.000000		0.000000		-0.000000		0.000000		-0.000000		0.000000		-0.155640		0.000000		0.290391		0.000000		-0.000000		-0.000000		-15.806978		657.416959		113.194068		0.353153		1.253475		1.891883		0.813274		-33.824371		-5.823880		4.431645		655.723792		67.523449		-0.290100		1.264111		1.903671		7.814088		28.041105		89.995463		
0.214071		-0.000000		-0.000000		-0.000000		0.123594		0.000000		0.385075		-0.000000		-0.000000		0.000000		0.000000		-0.000000		-0.000000		-0.155640		0.000000		0.290391		-0.000000		-0.000000		-0.000000		-14.623968		655.455772		112.273666		0.353126		1.253510		1.891963		0.754440		-33.814519		-5.792122		4.830022		650.381804		66.331110		-0.290094		1.264114		1.903721		7.739556		27.905952		89.232520		
0.217455		-0.000000		-0.000000		-0.000000		0.123594		0.000000		0.385075		-0.000000		-0.000000		0.000000		-0.000000		-0.000000		-0.000000		-0.155640		0.000000		0.290391		-0.000000		0.000000		-0.000000		-13.293435		653.070231		111.273625		0.353103		1.253550		1.892047		0.687798		-33.789664		-5.757264		5.151102		644.261316		65.110109		-0.290095		1.264123		1.903759		7.662173		27.729916		88.378044		
